<svg width="513" height="513" viewBox="0 0 513 513" fill="none" xmlns="http://www.w3.org/2000/svg">
<rect x="0.699219" y="0.427979" width="512" height="512" fill="#FFFCF5"/>
<path fill-rule="evenodd" clip-rule="evenodd" d="M276.173 422.131H126.006V302.226H274.707C279.792 302.226 284.877 303.287 289.504 305.967C294.864 308.898 298.987 312.942 302.102 317.997L346.264 402.871H346.493C324.641 415.711 300.407 422.131 276.127 422.131H276.173Z" fill="#4B67F9"/>
<path fill-rule="evenodd" clip-rule="evenodd" d="M126.006 247.582V90.7244H276.173H277.135L218.177 247.582H126.006Z" fill="#4B67F9"/>
<path fill-rule="evenodd" clip-rule="evenodd" d="M386.071 369.407V369.155L348.231 296.868L344.108 288.83C335.13 273.817 324.96 264.465 311.858 257.236C299.489 250.26 286.387 247.329 273.514 247.581H273.285L327.617 100.632C344.612 107.608 360.829 118.021 375.168 131.973C437.516 192.229 443.838 297.12 389.003 365.667C388.041 366.981 387.079 368.093 386.071 369.407Z" fill="#4B67F9"/>
</svg>
