<svg width="513" height="513" viewBox="0 0 513 513" fill="none" xmlns="http://www.w3.org/2000/svg">
<rect x="0.208984" y="0.427979" width="512" height="512" fill="#4B67F9"/>
<path fill-rule="evenodd" clip-rule="evenodd" d="M275.683 422.131H125.516V302.226H274.217C279.302 302.226 284.387 303.287 289.014 305.967C294.374 308.898 298.497 312.942 301.612 317.997L345.773 402.871H346.002C324.151 415.711 299.917 422.131 275.637 422.131H275.683Z" fill="#FFFCF5"/>
<path fill-rule="evenodd" clip-rule="evenodd" d="M125.516 247.582V90.7244H275.683H276.645L217.687 247.582H125.516Z" fill="#FFFCF5"/>
<path fill-rule="evenodd" clip-rule="evenodd" d="M385.581 369.407V369.155L347.741 296.868L343.618 288.83C334.639 273.817 324.469 264.465 311.368 257.236C298.999 250.26 285.897 247.329 273.024 247.581H272.795L327.126 100.632C344.122 107.608 360.339 118.021 374.678 131.973C437.026 192.229 443.348 297.12 388.513 365.667C387.551 366.981 386.589 368.093 385.581 369.407Z" fill="#FFFCF5"/>
</svg>
