<svg xmlns="http://www.w3.org/2000/svg" viewBox="0 0 326.9 65.56"><defs><style>.cls-1{fill:#c71f38;}.cls-1,.cls-2{fill-rule:evenodd;}.cls-2{fill:#3b3b3a;}</style></defs><g id="Layer_2" data-name="Layer 2"><g id="Layer_1-2" data-name="Layer 1"><path class="cls-1" d="M32.78,65.56H0V41.83H32.46a6.87,6.87,0,0,1,3.23.75A7,7,0,0,1,38.45,45h0l9.63,16.79h.06A32.68,32.68,0,0,1,32.78,65.56Z"/><path class="cls-1" d="M0,31V0H32.78V0H33L20.12,31Z"/><path class="cls-1" d="M56.77,55.13v-.06L48.51,40.78l-.9-1.59a17.23,17.23,0,0,0-7-6.25A17.57,17.57,0,0,0,32.2,31h-.06L44,2a33.26,33.26,0,0,1,10.38,6.2,32.72,32.72,0,0,1,3,46.23C57.19,54.65,57,54.86,56.77,55.13Z"/><path class="cls-2" d="M205.26,50a13,13,0,0,1-5.3-5.19A16.2,16.2,0,0,1,198.11,37a14.75,14.75,0,0,1,1.9-7.57,13.16,13.16,0,0,1,5.14-5.19,15.42,15.42,0,0,1,7.78-1.91,17.6,17.6,0,0,1,6.15,1,12.47,12.47,0,0,1,4.76,3.23,12.7,12.7,0,0,1,2.81,5.3,21.29,21.29,0,0,1,.48,7.46.47.47,0,0,1-.43.37H204.94l.05.53a6.9,6.9,0,0,0,1.22,2.49A7.29,7.29,0,0,0,209.12,45a10.68,10.68,0,0,0,4.29.85,11.4,11.4,0,0,0,2.86-.37,12.1,12.1,0,0,0,2.75-1A6.21,6.21,0,0,0,221.09,43a.41.41,0,0,1,.58,0l3.71,3.6a.41.41,0,0,1,0,.58,12.21,12.21,0,0,1-3.44,2.65,17.2,17.2,0,0,1-4.24,1.59,17.81,17.81,0,0,1-4.39.53A16.82,16.82,0,0,1,205.26,50Zm88,0a12.75,12.75,0,0,1-5.3-5.19,16.21,16.21,0,0,1-1.9-7.89,15.26,15.26,0,0,1,1.9-7.57,13,13,0,0,1,5.19-5.19,15.38,15.38,0,0,1,7.73-1.91,17.65,17.65,0,0,1,6.2,1,12.29,12.29,0,0,1,4.71,3.23,12.06,12.06,0,0,1,2.81,5.3,21.29,21.29,0,0,1,.48,7.46.36.36,0,0,1-.37.37H292.9l.1.53a6.81,6.81,0,0,0,1.17,2.49,7.53,7.53,0,0,0,3,2.28,11.09,11.09,0,0,0,7.1.48,12.59,12.59,0,0,0,2.81-1,6.61,6.61,0,0,0,2-1.53.41.41,0,0,1,.58,0l3.76,3.6a.47.47,0,0,1,0,.58,13.2,13.2,0,0,1-3.49,2.65,16.7,16.7,0,0,1-4.19,1.59,18.23,18.23,0,0,1-4.45.53A16.63,16.63,0,0,1,293.27,50Zm-165.22.64a13.31,13.31,0,0,1-4.61-3.07,13.86,13.86,0,0,1-3-4.66,16,16,0,0,1-1-5.78,16.21,16.21,0,0,1,1-5.82,15.32,15.32,0,0,1,3-4.66,13.43,13.43,0,0,1,4.61-3.12,16.39,16.39,0,0,1,11.91,0,13.56,13.56,0,0,1,7.63,7.78,16,16,0,0,1,1.06,5.82,16.86,16.86,0,0,1-1,5.78,14.51,14.51,0,0,1-3,4.66A13.91,13.91,0,0,1,140,50.68a15.72,15.72,0,0,1-6,1.11A15.18,15.18,0,0,1,128.05,50.68Zm-34.27.16a13.12,13.12,0,0,1-4.55-2.92,13.27,13.27,0,0,1-3.07-4.6,16.61,16.61,0,0,1-1.11-6.2,16.82,16.82,0,0,1,1.11-6.35,12.63,12.63,0,0,1,3-4.61,13.23,13.23,0,0,1,4.56-2.81,16.74,16.74,0,0,1,5.72-1,12.55,12.55,0,0,1,2.7.32,14.33,14.33,0,0,1,2.86,1,10.77,10.77,0,0,1,2.49,1.59,5.32,5.32,0,0,1,1.06,1.06l.1.1V11.92a.37.37,0,0,1,.37-.38h5.77a.37.37,0,0,1,.38.38V50.84a.41.41,0,0,1-.38.42h-5.4a.45.45,0,0,1-.42-.37l-.21-3.28-.64.74a10.76,10.76,0,0,1-1.48,1.32,11.21,11.21,0,0,1-3.39,1.64,12.56,12.56,0,0,1-3.71.48A16.78,16.78,0,0,1,93.78,50.84Zm62-1.75c-1.75-1.75-2.54-4.29-2.59-7.57V16.1a.36.36,0,0,1,.37-.37l5.77-.64c.27,0,.48.16.48.37v7.63h7.62a.36.36,0,0,1,.37.37v5a.36.36,0,0,1-.37.37h-7.73V41.52a4.65,4.65,0,0,0,.9,3.07,3.47,3.47,0,0,0,2.7,1.06,10.18,10.18,0,0,0,1.64-.27,10.63,10.63,0,0,0,1.7-.69.37.37,0,0,1,.53.27l1.69,4.87a.4.4,0,0,1-.21.48,16.8,16.8,0,0,1-2.86.95,12.41,12.41,0,0,1-2.81.32A9.18,9.18,0,0,1,155.74,49.09Zm17,1.75V11.92a.37.37,0,0,1,.37-.38H179a.37.37,0,0,1,.37.38V33.63l9.53-10.49.27-.1h7a.36.36,0,0,1,.37.37v.31l-.11.27L184.82,36.33,198.05,50.2l.11.27v.37a.45.45,0,0,1-.42.42h-7l-.32-.16-11.07-12V50.84a.41.41,0,0,1-.37.42h-5.83A.41.41,0,0,1,172.79,50.84Zm59.42,0V23.41a.36.36,0,0,1,.37-.37h5.35c.21,0,.37.1.37.31l.27,2.55.52-.69A9.07,9.07,0,0,1,240.42,24a8,8,0,0,1,2.91-1.32,15.7,15.7,0,0,1,3.07-.32,17.06,17.06,0,0,1,1.8.11.46.46,0,0,1,.32.42v5.88a.4.4,0,0,1-.37.37H248l-.48-.16a8.72,8.72,0,0,0-1.8-.16,7.69,7.69,0,0,0-3.49.8A6.23,6.23,0,0,0,239.68,32a8.09,8.09,0,0,0-1,4V50.84a.45.45,0,0,1-.42.42h-5.72A.41.41,0,0,1,232.21,50.84Zm21.55,0V23.35a.46.46,0,0,1,.43-.42h5.24a.4.4,0,0,1,.37.37l.27,3.18.42-.43a13.2,13.2,0,0,1,3.39-2.38A11.94,11.94,0,0,1,269,22.56a12.26,12.26,0,0,1,6.2,1.59,11.1,11.1,0,0,1,4.34,4.6,16.43,16.43,0,0,1,1.64,7.37V50.84a.4.4,0,0,1-.37.42H275a.41.41,0,0,1-.37-.42V36.17a8.89,8.89,0,0,0-.85-4,6.09,6.09,0,0,0-2.33-2.59,7.83,7.83,0,0,0-3.81-.9,7.17,7.17,0,0,0-3.87,1.06,7.72,7.72,0,0,0-2.54,2.8,8.72,8.72,0,0,0-1,4V50.84a.41.41,0,0,1-.37.42h-5.72A.46.46,0,0,1,253.76,50.84Zm66.62,0V11.92a.41.41,0,0,1,.43-.38h5.71a.37.37,0,0,1,.38.38V50.84a.41.41,0,0,1-.38.42h-5.71A.45.45,0,0,1,320.38,50.84ZM104.11,44.59a8.06,8.06,0,0,0,3-3,9.31,9.31,0,0,0,0-9,8,8,0,0,0-3-3,9.58,9.58,0,0,0-4.24-1.12,8.65,8.65,0,0,0-4.23,1.06,7.35,7.35,0,0,0-3,2.86,9.61,9.61,0,0,0-1.11,4.66,9.49,9.49,0,0,0,1.11,4.56,8,8,0,0,0,3,3,8.65,8.65,0,0,0,4.23,1.06A8.84,8.84,0,0,0,104.11,44.59Zm34.21-.05a7.85,7.85,0,0,0,2.81-3.08,9.52,9.52,0,0,0,1-4.29A9.25,9.25,0,0,0,141,32.83a7.67,7.67,0,0,0-7-4.29,8.14,8.14,0,0,0-4.29,1.17,8.22,8.22,0,0,0-2.76,3.12,10,10,0,0,0-1,4.34,9.52,9.52,0,0,0,1,4.29,8.11,8.11,0,0,0,2.76,3.08A8.67,8.67,0,0,0,134,45.7,8.28,8.28,0,0,0,138.32,44.54Zm82.45-10.49-.1-.58a6.11,6.11,0,0,0-1-2.49A6.19,6.19,0,0,0,217,28.91a10,10,0,0,0-3.92-.74,9.36,9.36,0,0,0-3.7.74A7.11,7.11,0,0,0,206.53,31a7.43,7.43,0,0,0-1.33,2.49l-.16.53Zm88,0-.05-.58a6.9,6.9,0,0,0-1-2.49A6.44,6.44,0,0,0,305,28.91a10.3,10.3,0,0,0-4-.74,9.54,9.54,0,0,0-3.7.74A7,7,0,0,0,294.54,31a6.62,6.62,0,0,0-1.32,2.49l-.16.53Z"/></g></g></svg>