<svg width="327" height="61" viewBox="0 0 327 61" fill="none" xmlns="http://www.w3.org/2000/svg">
<path fill-rule="evenodd" clip-rule="evenodd" d="M29.7727 60.48H0V38.7783H29.482C30.4902 38.7783 31.4984 38.9705 32.4157 39.4554C33.4784 39.986 34.2958 40.7179 34.9134 41.6328L43.669 56.9942H43.7144C39.382 59.3181 34.5773 60.48 29.7636 60.48H29.7727Z" fill="white"/>
<path fill-rule="evenodd" clip-rule="evenodd" d="M0 28.8878V0.498047H29.7727H29.9634L18.2741 28.8878H0Z" fill="white"/>
<path fill-rule="evenodd" clip-rule="evenodd" d="M51.562 50.9374V50.8917L44.0598 37.8084L43.2423 36.3537C41.4622 33.6364 39.4458 31.9438 36.8482 30.6355C34.3959 29.3729 31.7983 28.8423 29.2461 28.888H29.2007L39.9726 2.2915C43.3422 3.55408 46.5575 5.4388 49.4003 7.96396C61.7617 18.8697 63.0151 37.8542 52.1433 50.2604C51.9525 50.4982 51.7618 50.6995 51.562 50.9374Z" fill="white"/>
<path d="M99.7067 48.4832C97.4707 48.4832 95.3674 47.9213 93.3968 46.7975C91.464 45.635 89.9102 43.9494 88.7354 41.7406C87.5606 39.5318 86.9731 36.858 86.9731 33.7192V32.7892C86.9731 29.6504 87.5606 26.9767 88.7354 24.7679C89.9102 22.5591 91.464 20.8928 93.3968 19.7691C95.3295 18.6066 97.4329 18.0253 99.7067 18.0253C101.412 18.0253 102.833 18.2384 103.97 18.6647C105.145 19.0522 106.092 19.5559 106.812 20.1759C107.533 20.796 108.082 21.4547 108.461 22.1522H109.484V9.49512H116.647V47.6694H109.598V44.1819H108.575C107.93 45.2669 106.926 46.255 105.562 47.1463C104.235 48.0376 102.284 48.4832 99.7067 48.4832ZM101.867 42.0894C104.065 42.0894 105.903 41.3725 107.381 39.9387C108.859 38.4662 109.598 36.3349 109.598 33.5449V32.9636C109.598 30.1736 108.859 28.0617 107.381 26.6279C105.941 25.1554 104.103 24.4191 101.867 24.4191C99.6688 24.4191 97.8308 25.1554 96.3528 26.6279C94.8748 28.0617 94.1358 30.1736 94.1358 32.9636V33.5449C94.1358 36.3349 94.8748 38.4662 96.3528 39.9387C97.8308 41.3725 99.6688 42.0894 101.867 42.0894Z" fill="white"/>
<path d="M135.73 48.4832C132.925 48.4832 130.405 47.9019 128.169 46.7394C125.933 45.5769 124.171 43.8913 122.883 41.6825C121.594 39.4737 120.95 36.8193 120.95 33.7192V32.7892C120.95 29.6892 121.594 27.0348 122.883 24.826C124.171 22.6172 125.933 20.9316 128.169 19.7691C130.405 18.6066 132.925 18.0253 135.73 18.0253C138.534 18.0253 141.054 18.6066 143.29 19.7691C145.526 20.9316 147.289 22.6172 148.577 24.826C149.866 27.0348 150.51 29.6892 150.51 32.7892V33.7192C150.51 36.8193 149.866 39.4737 148.577 41.6825C147.289 43.8913 145.526 45.5769 143.29 46.7394C141.054 47.9019 138.534 48.4832 135.73 48.4832ZM135.73 41.9731C137.928 41.9731 139.747 41.2562 141.187 39.8225C142.627 38.3499 143.347 36.2574 143.347 33.5449V32.9636C143.347 30.2511 142.627 28.1779 141.187 26.7442C139.785 25.2716 137.966 24.5354 135.73 24.5354C133.532 24.5354 131.713 25.2716 130.273 26.7442C128.833 28.1779 128.112 30.2511 128.112 32.9636V33.5449C128.112 36.2574 128.833 38.3499 130.273 39.8225C131.713 41.2562 133.532 41.9731 135.73 41.9731Z" fill="white"/>
<path d="M164.705 47.6694C162.848 47.6694 161.332 47.0882 160.157 45.9257C159.02 44.7244 158.452 43.1356 158.452 41.1593V24.8841H151.403V18.8391H158.452V11.1445H165.614V18.8391H173.345V24.8841H165.614V39.8806C165.614 41.0431 166.145 41.6243 167.206 41.6243H172.663V47.6694H164.705Z" fill="white"/>
<path d="M177.555 47.6694V9.49512H184.718V29.4761H185.741L195.064 18.8391H204.386L191.369 32.7892L204.841 47.6694H195.632L185.741 36.2187H184.718V47.6694H177.555Z" fill="white"/>
<path d="M218.494 48.4832C215.69 48.4832 213.208 47.8826 211.048 46.6813C208.925 45.4413 207.258 43.7169 206.045 41.5081C204.87 39.2606 204.283 36.6255 204.283 33.603V32.9055C204.283 29.8829 204.87 27.2673 206.045 25.0585C207.22 22.811 208.868 21.0866 210.991 19.8853C213.113 18.6453 215.576 18.0253 218.381 18.0253C221.147 18.0253 223.554 18.6647 225.6 19.9434C227.647 21.1835 229.238 22.9272 230.375 25.1748C231.512 27.3835 232.081 29.9604 232.081 32.9055V35.4049H211.559C211.635 37.3812 212.355 38.9893 213.719 40.2293C215.084 41.4693 216.751 42.0894 218.722 42.0894C220.73 42.0894 222.208 41.6437 223.156 40.7525C224.103 39.8612 224.823 38.8731 225.316 37.7881L231.171 40.9268C230.641 41.9344 229.864 43.0387 228.84 44.24C227.855 45.4025 226.529 46.41 224.861 47.2626C223.194 48.0763 221.071 48.4832 218.494 48.4832ZM211.616 29.9411H224.804C224.653 28.2748 223.99 26.9379 222.815 25.9304C221.678 24.9229 220.181 24.4191 218.324 24.4191C216.391 24.4191 214.856 24.9229 213.719 25.9304C212.582 26.9379 211.881 28.2748 211.616 29.9411Z" fill="white"/>
<path d="M236.182 47.6694V18.8391H243.231V22.0941H244.254C244.671 20.9316 245.353 20.0791 246.301 19.5366C247.286 18.9941 248.423 18.7228 249.711 18.7228H253.122V25.2329H249.598C247.779 25.2329 246.282 25.7366 245.107 26.7442C243.932 27.7129 243.345 29.2242 243.345 31.278V47.6694H236.182Z" fill="white"/>
<path d="M256.447 47.6694V18.8391H263.496V22.6172H264.519C264.974 21.6097 265.826 20.6603 267.077 19.7691C268.328 18.8391 270.223 18.3741 272.762 18.3741C274.96 18.3741 276.874 18.8972 278.503 19.9434C280.171 20.951 281.459 22.3653 282.369 24.1866C283.278 25.9691 283.733 28.0617 283.733 30.4642V47.6694H276.57V31.0455C276.57 28.8754 276.04 27.2479 274.979 26.1629C273.955 25.0779 272.477 24.5354 270.545 24.5354C268.347 24.5354 266.641 25.291 265.429 26.8023C264.216 28.2748 263.609 30.348 263.609 33.0217V47.6694H256.447Z" fill="white"/>
<path d="M302.05 48.4832C299.245 48.4832 296.763 47.8826 294.603 46.6813C292.48 45.4413 290.813 43.7169 289.6 41.5081C288.425 39.2606 287.838 36.6255 287.838 33.603V32.9055C287.838 29.8829 288.425 27.2673 289.6 25.0585C290.775 22.811 292.424 21.0866 294.546 19.8853C296.668 18.6453 299.131 18.0253 301.936 18.0253C304.702 18.0253 307.109 18.6647 309.155 19.9434C311.202 21.1835 312.793 22.9272 313.93 25.1748C315.067 27.3835 315.636 29.9604 315.636 32.9055V35.4049H295.114C295.19 37.3812 295.91 38.9893 297.274 40.2293C298.639 41.4693 300.306 42.0894 302.277 42.0894C304.285 42.0894 305.763 41.6437 306.711 40.7525C307.658 39.8612 308.378 38.8731 308.871 37.7881L314.726 40.9268C314.196 41.9344 313.419 43.0387 312.396 44.24C311.41 45.4025 310.084 46.41 308.416 47.2626C306.749 48.0763 304.627 48.4832 302.05 48.4832ZM295.171 29.9411H308.359C308.208 28.2748 307.545 26.9379 306.37 25.9304C305.233 24.9229 303.736 24.4191 301.879 24.4191C299.946 24.4191 298.411 24.9229 297.274 25.9304C296.138 26.9379 295.436 28.2748 295.171 29.9411Z" fill="white"/>
<path d="M319.737 47.6694V9.49512H326.9V47.6694H319.737Z" fill="white"/>
</svg>
