<svg width="219" height="41" viewBox="0 0 219 41" fill="none" xmlns="http://www.w3.org/2000/svg">
<path fill-rule="evenodd" clip-rule="evenodd" d="M20.7539 40.2488H0.899414V25.7766H20.5601C21.2324 25.7766 21.9047 25.9047 22.5165 26.228C23.2251 26.5819 23.7703 27.07 24.1821 27.6801L30.021 37.9242H30.0513C27.1621 39.4739 23.958 40.2488 20.7479 40.2488H20.7539Z" fill="#C71F38"/>
<path fill-rule="evenodd" clip-rule="evenodd" d="M0.899414 19.1811V0.248779H20.7539H20.8811L13.0859 19.1811H0.899414Z" fill="#C71F38"/>
<path fill-rule="evenodd" clip-rule="evenodd" d="M35.2842 33.8852V33.8547L30.2812 25.1298L29.736 24.1597C28.5489 22.3476 27.2043 21.2189 25.472 20.3464C23.8366 19.5044 22.1043 19.1506 20.4024 19.1811H20.3721L27.5555 1.44464C29.8027 2.28662 31.9468 3.54348 33.8426 5.22744C42.086 12.5002 42.9219 25.1603 35.6718 33.4337C35.5446 33.5923 35.4174 33.7265 35.2842 33.8852Z" fill="#C71F38"/>
<path d="M67.391 32.2488C65.9 32.2488 64.4973 31.8741 63.1831 31.1247C61.8942 30.3494 60.8581 29.2253 60.0746 27.7523C59.2911 26.2794 58.8994 24.4963 58.8994 22.4031V21.7829C58.8994 19.6898 59.2911 17.9067 60.0746 16.4337C60.8581 14.9608 61.8942 13.8496 63.1831 13.1002C64.472 12.3249 65.8747 11.9373 67.391 11.9373C68.5283 11.9373 69.476 12.0794 70.2342 12.3637C71.0177 12.6221 71.6495 12.958 72.1297 13.3715C72.6099 13.785 72.9763 14.2243 73.229 14.6894H73.9114V6.24878H78.688V31.7061H73.9872V29.3804H73.3049C72.8752 30.1039 72.2055 30.7629 71.2957 31.3572C70.4111 31.9516 69.1096 32.2488 67.391 32.2488ZM68.8316 27.9849C70.2974 27.9849 71.5231 27.5069 72.5088 26.5507C73.4944 25.5687 73.9872 24.1474 73.9872 22.2869V21.8992C73.9872 20.0386 73.4944 18.6303 72.5088 17.6741C71.5484 16.6922 70.3227 16.2012 68.8316 16.2012C67.3658 16.2012 66.14 16.6922 65.1544 17.6741C64.1688 18.6303 63.676 20.0386 63.676 21.8992V22.2869C63.676 24.1474 64.1688 25.5687 65.1544 26.5507C66.14 27.5069 67.3658 27.9849 68.8316 27.9849Z" fill="black"/>
<path d="M91.4139 32.2488C89.5437 32.2488 87.863 31.8612 86.3719 31.0859C84.8809 30.3107 83.7057 29.1866 82.8464 27.7136C81.9871 26.2406 81.5575 24.4705 81.5575 22.4031V21.7829C81.5575 19.7156 81.9871 17.9455 82.8464 16.4725C83.7057 14.9995 84.8809 13.8754 86.3719 13.1002C87.863 12.3249 89.5437 11.9373 91.4139 11.9373C93.284 11.9373 94.9647 12.3249 96.4558 13.1002C97.9469 13.8754 99.122 14.9995 99.9813 16.4725C100.841 17.9455 101.27 19.7156 101.27 21.7829V22.4031C101.27 24.4705 100.841 26.2406 99.9813 27.7136C99.122 29.1866 97.9469 30.3107 96.4558 31.0859C94.9647 31.8612 93.284 32.2488 91.4139 32.2488ZM91.4139 27.9074C92.8797 27.9074 94.0928 27.4293 95.0531 26.4732C96.0135 25.4912 96.4937 24.0958 96.4937 22.2869V21.8992C96.4937 20.0903 96.0135 18.7078 95.0531 17.7517C94.118 16.7697 92.9049 16.2787 91.4139 16.2787C89.948 16.2787 88.7349 16.7697 87.7746 17.7517C86.8142 18.7078 86.334 20.0903 86.334 21.8992V22.2869C86.334 24.0958 86.8142 25.4912 87.7746 26.4732C88.7349 27.4293 89.948 27.9074 91.4139 27.9074Z" fill="black"/>
<path d="M110.736 31.7061C109.498 31.7061 108.487 31.3185 107.704 30.5432C106.945 29.7421 106.566 28.6826 106.566 27.3647V16.5113H101.866V12.48H106.566V7.34874H111.343V12.48H116.498V16.5113H111.343V26.5119C111.343 27.2872 111.697 27.6748 112.404 27.6748H116.044V31.7061H110.736Z" fill="black"/>
<path d="M119.306 31.7061V6.24878H124.082V19.5735H124.765L130.982 12.48H137.199L128.518 21.7829L137.502 31.7061H131.361L124.765 24.0699H124.082V31.7061H119.306Z" fill="black"/>
<path d="M146.607 32.2488C144.737 32.2488 143.082 31.8482 141.641 31.0471C140.226 30.2202 139.114 29.0703 138.305 27.5973C137.522 26.0985 137.13 24.3413 137.13 22.3256V21.8605C137.13 19.8448 137.522 18.1005 138.305 16.6275C139.088 15.1287 140.188 13.9788 141.603 13.1777C143.018 12.3508 144.661 11.9373 146.531 11.9373C148.376 11.9373 149.981 12.3637 151.346 13.2165C152.71 14.0434 153.772 15.2063 154.53 16.7051C155.288 18.178 155.667 19.8965 155.667 21.8605V23.5272H141.982C142.033 24.8452 142.513 25.9176 143.423 26.7445C144.333 27.5715 145.445 27.9849 146.759 27.9849C148.098 27.9849 149.084 27.6877 149.716 27.0934C150.347 26.499 150.828 25.8401 151.156 25.1165L155.061 27.2097C154.707 27.8816 154.189 28.618 153.507 29.4191C152.849 30.1944 151.965 30.8663 150.853 31.4348C149.741 31.9774 148.326 32.2488 146.607 32.2488ZM142.02 19.8836H150.815C150.714 18.7724 150.272 17.8809 149.488 17.209C148.73 16.5371 147.732 16.2012 146.493 16.2012C145.204 16.2012 144.181 16.5371 143.423 17.209C142.665 17.8809 142.197 18.7724 142.02 19.8836Z" fill="black"/>
<path d="M158.402 31.7061V12.48H163.103V14.6507H163.786C164.064 13.8754 164.518 13.3069 165.15 12.9451C165.807 12.5833 166.566 12.4025 167.425 12.4025H169.699V16.7438H167.349C166.136 16.7438 165.138 17.0798 164.354 17.7517C163.571 18.3977 163.179 19.4055 163.179 20.7751V31.7061H158.402Z" fill="black"/>
<path d="M171.916 31.7061V12.48H176.617V14.9995H177.3C177.603 14.3276 178.171 13.6945 179.005 13.1002C179.839 12.48 181.103 12.1699 182.796 12.1699C184.262 12.1699 185.538 12.5187 186.625 13.2165C187.737 13.8883 188.596 14.8316 189.203 16.0461C189.81 17.2348 190.113 18.6303 190.113 20.2324V31.7061H185.336V20.6201C185.336 19.1729 184.982 18.0876 184.275 17.364C183.592 16.6405 182.607 16.2787 181.318 16.2787C179.852 16.2787 178.715 16.7826 177.906 17.7904C177.097 18.7724 176.693 20.1549 176.693 21.938V31.7061H171.916Z" fill="black"/>
<path d="M202.328 32.2488C200.457 32.2488 198.802 31.8482 197.361 31.0471C195.946 30.2202 194.834 29.0703 194.025 27.5973C193.242 26.0985 192.85 24.3413 192.85 22.3256V21.8605C192.85 19.8448 193.242 18.1005 194.025 16.6275C194.809 15.1287 195.908 13.9788 197.324 13.1777C198.739 12.3508 200.382 11.9373 202.252 11.9373C204.097 11.9373 205.701 12.3637 207.066 13.2165C208.431 14.0434 209.492 15.2063 210.251 16.7051C211.009 18.178 211.388 19.8965 211.388 21.8605V23.5272H197.703C197.753 24.8452 198.233 25.9176 199.143 26.7445C200.053 27.5715 201.165 27.9849 202.479 27.9849C203.819 27.9849 204.804 27.6877 205.436 27.0934C206.068 26.499 206.548 25.8401 206.877 25.1165L210.781 27.2097C210.427 27.8816 209.909 28.618 209.227 29.4191C208.57 30.1944 207.685 30.8663 206.573 31.4348C205.461 31.9774 204.046 32.2488 202.328 32.2488ZM197.741 19.8836H206.535C206.434 18.7724 205.992 17.8809 205.209 17.209C204.45 16.5371 203.452 16.2012 202.214 16.2012C200.925 16.2012 199.901 16.5371 199.143 17.209C198.385 17.8809 197.917 18.7724 197.741 19.8836Z" fill="black"/>
<path d="M214.123 31.7061V6.24878H218.899V31.7061H214.123Z" fill="black"/>
</svg>
