<svg width="41" height="40" viewBox="0 0 41 40" fill="none" xmlns="http://www.w3.org/2000/svg">
<path fill-rule="evenodd" clip-rule="evenodd" d="M20.5591 39.9999H0.70459V25.5277H20.3653C21.0376 25.5277 21.7099 25.6558 22.3217 25.9792C23.0303 26.3331 23.5754 26.8212 23.9873 27.4313L29.8262 37.6754H29.8564C26.9673 39.2251 23.7632 39.9999 20.553 39.9999H20.5591Z" fill="#4B67F9"/>
<path fill-rule="evenodd" clip-rule="evenodd" d="M0.70459 18.9323V0H20.5591H20.6863L12.8911 18.9323H0.70459Z" fill="#C71F38"/>
<path fill-rule="evenodd" clip-rule="evenodd" d="M35.0898 33.6363V33.6058L30.0868 24.881L29.5417 23.9109C28.3545 22.0988 27.0099 20.9701 25.2776 20.0976C23.6423 19.2556 21.91 18.9017 20.208 18.9322H20.1777L27.3612 1.1958C29.6083 2.03778 31.7525 3.29464 33.6483 4.9786C41.8917 12.2513 42.7276 24.9115 35.4775 33.1848C35.3503 33.3435 35.2231 33.4777 35.0898 33.6363Z" fill="#FFA800"/>
</svg>
