<svg width="41" height="42" viewBox="0 0 41 42" fill="none" xmlns="http://www.w3.org/2000/svg">
<path fill-rule="evenodd" clip-rule="evenodd" d="M20.2217 41.9957H0.367188V26.8689H20.0279C20.7002 26.8689 21.3725 27.0028 21.9843 27.3408C22.6929 27.7107 23.238 28.2209 23.6499 28.8586L29.4888 39.566H29.519C26.6299 41.1858 23.4258 41.9957 20.2156 41.9957H20.2217Z" fill="white"/>
<path fill-rule="evenodd" clip-rule="evenodd" d="M0.367188 19.9751V0.186523H20.2217H20.3489L12.5537 19.9751H0.367188Z" fill="white"/>
<path fill-rule="evenodd" clip-rule="evenodd" d="M34.7519 35.3442V35.3123L29.7489 26.1929L29.2038 25.1789C28.0167 23.2849 26.672 22.1051 24.9398 21.1931C23.3044 20.3131 21.5721 19.9432 19.8701 19.9751H19.8398L27.0233 1.43646C29.2704 2.31652 31.4146 3.63023 33.3104 5.39035C41.5538 12.992 42.3897 26.2248 35.1396 34.8723C35.0124 35.0381 34.8852 35.1784 34.7519 35.3442Z" fill="white"/>
</svg>
