<svg width="1934" height="356" viewBox="0 0 1934 356" fill="none" xmlns="http://www.w3.org/2000/svg">
<path fill-rule="evenodd" clip-rule="evenodd" d="M176.344 355.364H0.275879V227.025H174.625C180.587 227.025 186.549 228.162 191.974 231.029C198.258 234.167 203.092 238.496 206.745 243.906L258.523 334.749H258.791C233.171 348.492 204.757 355.364 176.29 355.364H176.344Z" fill="white"/>
<path fill-rule="evenodd" clip-rule="evenodd" d="M0.275879 168.535V0.645508H176.344H177.471L108.344 168.535H0.275879Z" fill="white"/>
<path fill-rule="evenodd" clip-rule="evenodd" d="M305.2 298.931V298.66L260.834 221.29L256 212.687C245.472 196.617 233.548 186.608 218.186 178.871C203.684 171.404 188.323 168.266 173.229 168.537H172.961L236.663 11.252C256.59 18.7185 275.604 29.8642 292.416 44.7974C365.518 109.291 372.93 221.56 308.637 294.927C307.509 296.334 306.381 297.524 305.2 298.931Z" fill="white"/>
<path d="M589.915 284.417C576.692 284.417 564.254 281.094 552.6 274.448C541.17 267.573 531.981 257.605 525.034 244.543C518.086 231.481 514.612 215.669 514.612 197.107V191.607C514.612 173.045 518.086 157.233 525.034 144.171C531.981 131.109 541.17 121.255 552.6 114.609C564.03 107.734 576.468 104.297 589.915 104.297C600 104.297 608.405 105.557 615.128 108.078C622.076 110.37 627.679 113.349 631.937 117.015C636.195 120.682 639.445 124.577 641.686 128.702H647.737V53.8516H690.095V279.604H648.409V258.98H642.358C638.548 265.396 632.609 271.24 624.541 276.511C616.697 281.781 605.155 284.417 589.915 284.417ZM602.69 246.605C615.689 246.605 626.558 242.366 635.299 233.887C644.039 225.179 648.409 212.575 648.409 196.075V192.638C648.409 176.139 644.039 163.649 635.299 155.17C626.782 146.462 615.913 142.108 602.69 142.108C589.691 142.108 578.821 146.462 570.081 155.17C561.34 163.649 556.97 176.139 556.97 192.638V196.075C556.97 212.575 561.34 225.179 570.081 233.887C578.821 242.366 589.691 246.605 602.69 246.605Z" fill="white"/>
<path d="M802.947 284.417C786.362 284.417 771.459 280.979 758.236 274.105C745.013 267.23 734.592 257.261 726.972 244.199C719.352 231.137 715.542 215.439 715.542 197.107V191.607C715.542 173.274 719.352 157.577 726.972 144.514C734.592 131.452 745.013 121.484 758.236 114.609C771.459 107.734 786.362 104.297 802.947 104.297C819.531 104.297 834.435 107.734 847.658 114.609C860.881 121.484 871.302 131.452 878.922 144.514C886.542 157.577 890.352 173.274 890.352 191.607V197.107C890.352 215.439 886.542 231.137 878.922 244.199C871.302 257.261 860.881 267.23 847.658 274.105C834.435 280.979 819.531 284.417 802.947 284.417ZM802.947 245.918C815.946 245.918 826.703 241.678 835.22 233.199C843.736 224.491 847.994 212.117 847.994 196.075V192.638C847.994 176.597 843.736 164.337 835.22 155.858C826.927 147.15 816.17 142.796 802.947 142.796C789.948 142.796 779.191 147.15 770.674 155.858C762.158 164.337 757.9 176.597 757.9 192.638V196.075C757.9 212.117 762.158 224.491 770.674 233.199C779.191 241.678 789.948 245.918 802.947 245.918Z" fill="white"/>
<path d="M974.296 279.604C963.314 279.604 954.349 276.167 947.402 269.292C940.678 262.188 937.316 252.793 937.316 241.105V144.858H895.631V109.109H937.316V63.6059H979.674V109.109H1025.39V144.858H979.674V233.543C979.674 240.418 982.812 243.855 989.087 243.855H1021.36V279.604H974.296Z" fill="white"/>
<path d="M1050.29 279.604V53.8516H1092.65V172.014H1098.7L1153.83 109.109H1208.96L1131.98 191.607L1211.65 279.604H1157.19L1098.7 211.888H1092.65V279.604H1050.29Z" fill="white"/>
<path d="M1292.39 284.417C1275.81 284.417 1261.13 280.865 1248.36 273.761C1235.81 266.428 1225.94 256.23 1218.77 243.168C1211.82 229.877 1208.35 214.294 1208.35 196.419V192.294C1208.35 174.42 1211.82 158.952 1218.77 145.889C1225.72 132.598 1235.47 122.4 1248.02 115.296C1260.57 107.963 1275.14 104.297 1291.72 104.297C1308.08 104.297 1322.31 108.078 1334.42 115.64C1346.52 122.973 1355.93 133.286 1362.65 146.577C1369.38 159.639 1372.74 174.878 1372.74 192.294V207.075H1251.38C1251.83 218.762 1256.09 228.272 1264.16 235.606C1272.22 242.939 1282.09 246.605 1293.74 246.605C1305.62 246.605 1314.36 243.97 1319.96 238.699C1325.56 233.429 1329.82 227.585 1332.74 221.169L1367.36 239.731C1364.22 245.689 1359.63 252.22 1353.58 259.324C1347.75 266.199 1339.91 272.157 1330.05 277.198C1320.18 282.011 1307.63 284.417 1292.39 284.417ZM1251.72 174.764H1329.71C1328.81 164.91 1324.89 157.004 1317.94 151.045C1311.22 145.087 1302.37 142.108 1291.39 142.108C1279.96 142.108 1270.88 145.087 1264.16 151.045C1257.43 157.004 1253.29 164.91 1251.72 174.764Z" fill="white"/>
<path d="M1396.99 279.604V109.109H1438.68V128.359H1444.73C1447.2 121.484 1451.23 116.442 1456.83 113.234C1462.66 110.026 1469.38 108.422 1477 108.422H1497.17V146.921H1476.33C1465.57 146.921 1456.72 149.9 1449.77 155.858C1442.83 161.587 1439.35 170.524 1439.35 182.67V279.604H1396.99Z" fill="white"/>
<path d="M1516.84 279.604V109.109H1558.52V131.452H1564.57C1567.26 125.494 1572.3 119.88 1579.7 114.609C1587.1 109.109 1598.3 106.359 1613.32 106.359C1626.32 106.359 1637.63 109.453 1647.27 115.64C1657.13 121.598 1664.75 129.963 1670.13 140.733C1675.51 151.275 1678.2 163.649 1678.2 177.857V279.604H1635.84V181.295C1635.84 168.462 1632.7 158.837 1626.43 152.42C1620.38 146.004 1611.64 142.796 1600.21 142.796C1587.21 142.796 1577.12 147.264 1569.95 156.202C1562.78 164.91 1559.19 177.17 1559.19 192.982V279.604H1516.84Z" fill="white"/>
<path d="M1786.52 284.417C1769.93 284.417 1755.25 280.865 1742.48 273.761C1729.93 266.428 1720.07 256.23 1712.9 243.168C1705.95 229.877 1702.47 214.294 1702.47 196.419V192.294C1702.47 174.42 1705.95 158.952 1712.9 145.889C1719.84 132.598 1729.59 122.4 1742.14 115.296C1754.69 107.963 1769.26 104.297 1785.84 104.297C1802.21 104.297 1816.44 108.078 1828.54 115.64C1840.64 122.973 1850.05 133.286 1856.78 146.577C1863.5 159.639 1866.86 174.878 1866.86 192.294V207.075H1745.5C1745.95 218.762 1750.21 228.272 1758.28 235.606C1766.35 242.939 1776.21 246.605 1787.86 246.605C1799.74 246.605 1808.48 243.97 1814.08 238.699C1819.69 233.429 1823.94 227.585 1826.86 221.169L1861.48 239.731C1858.35 245.689 1853.75 252.22 1847.7 259.324C1841.87 266.199 1834.03 272.157 1824.17 277.198C1814.31 282.011 1801.76 284.417 1786.52 284.417ZM1745.84 174.764H1823.83C1822.94 164.91 1819.01 157.004 1812.07 151.045C1805.34 145.087 1796.49 142.108 1785.51 142.108C1774.08 142.108 1765 145.087 1758.28 151.045C1751.56 157.004 1747.41 164.91 1745.84 174.764Z" fill="white"/>
<path d="M1891.12 279.604V53.8516H1933.47V279.604H1891.12Z" fill="white"/>
</svg>
