<svg width="1281" height="641" viewBox="0 0 1281 641" fill="none" xmlns="http://www.w3.org/2000/svg">
<rect x="0.788086" y="0.629395" width="1280" height="640" fill="white"/>
<path fill-rule="evenodd" clip-rule="evenodd" d="M189.608 401.466H88.9946V328.127H188.626C192.033 328.127 195.44 328.777 198.54 330.415C202.131 332.209 204.893 334.682 206.98 337.774L236.569 389.686H236.722C222.082 397.539 205.845 401.466 189.577 401.466H189.608Z" fill="#C71F38"/>
<path fill-rule="evenodd" clip-rule="evenodd" d="M88.9946 294.705V198.765H189.608H190.252L150.75 294.705H88.9946Z" fill="#C71F38"/>
<path fill-rule="evenodd" clip-rule="evenodd" d="M263.242 369.218V369.063L237.889 324.85L235.127 319.934C229.111 310.751 222.297 305.031 213.519 300.61C205.231 296.343 196.453 294.55 187.828 294.705H187.675L224.077 204.825C235.465 209.092 246.33 215.461 255.937 223.994C297.711 260.849 301.947 325.005 265.207 366.93C264.562 367.734 263.917 368.414 263.242 369.218Z" fill="#C71F38"/>
<path d="M425.942 360.926C418.386 360.926 411.278 359.027 404.619 355.23C398.087 351.301 392.836 345.605 388.866 338.14C384.896 330.676 382.911 321.64 382.911 311.033V307.89C382.911 297.283 384.896 288.247 388.866 280.783C392.836 273.319 398.087 267.688 404.619 263.89C411.15 259.961 418.258 257.997 425.942 257.997C431.705 257.997 436.508 258.717 440.35 260.158C444.32 261.467 447.522 263.17 449.955 265.265C452.389 267.36 454.246 269.586 455.526 271.944H458.984V229.17H483.19V358.176H459.368V346.39H455.911C453.733 350.057 450.34 353.396 445.729 356.408C441.247 359.42 434.651 360.926 425.942 360.926ZM433.242 339.319C440.67 339.319 446.882 336.896 451.876 332.051C456.871 327.075 459.368 319.872 459.368 310.444V308.479C459.368 299.051 456.871 291.914 451.876 287.069C447.01 282.092 440.798 279.604 433.242 279.604C425.814 279.604 419.603 282.092 414.608 287.069C409.613 291.914 407.116 299.051 407.116 308.479V310.444C407.116 319.872 409.613 327.075 414.608 332.051C419.603 336.896 425.814 339.319 433.242 339.319Z" fill="black"/>
<path d="M547.678 360.926C538.201 360.926 529.684 358.962 522.128 355.033C514.572 351.105 508.617 345.408 504.263 337.944C499.908 330.479 497.731 321.509 497.731 311.033V307.89C497.731 297.414 499.908 288.444 504.263 280.979C508.617 273.515 514.572 267.819 522.128 263.89C529.684 259.961 538.201 257.997 547.678 257.997C557.156 257.997 565.672 259.961 573.228 263.89C580.784 267.819 586.74 273.515 591.094 280.979C595.448 288.444 597.626 297.414 597.626 307.89V311.033C597.626 321.509 595.448 330.479 591.094 337.944C586.74 345.408 580.784 351.105 573.228 355.033C565.672 358.962 557.156 360.926 547.678 360.926ZM547.678 338.926C555.106 338.926 561.254 336.503 566.12 331.658C570.987 326.682 573.42 319.61 573.42 310.444V308.479C573.42 299.313 570.987 292.307 566.12 287.462C561.382 282.485 555.234 279.997 547.678 279.997C540.25 279.997 534.103 282.485 529.236 287.462C524.37 292.307 521.936 299.313 521.936 308.479V310.444C521.936 319.61 524.37 326.682 529.236 331.658C534.103 336.503 540.25 338.926 547.678 338.926Z" fill="black"/>
<path d="M645.595 358.176C639.32 358.176 634.197 356.212 630.227 352.283C626.384 348.224 624.463 342.855 624.463 336.176V281.176H600.642V260.747H624.463V234.744H648.669V260.747H674.795V281.176H648.669V331.854C648.669 335.783 650.462 337.747 654.048 337.747H672.49V358.176H645.595Z" fill="black"/>
<path d="M689.021 358.176V229.17H713.226V296.694H716.684L748.19 260.747H779.695L735.703 307.89L781.232 358.176H750.111L716.684 319.479H713.226V358.176H689.021Z" fill="black"/>
<path d="M827.371 360.926C817.894 360.926 809.506 358.896 802.206 354.837C795.034 350.646 789.399 344.819 785.3 337.355C781.33 329.759 779.345 320.854 779.345 310.64V308.283C779.345 298.069 781.33 289.229 785.3 281.765C789.271 274.17 794.842 268.342 802.014 264.283C809.185 260.092 817.51 257.997 826.987 257.997C836.336 257.997 844.469 260.158 851.385 264.479C858.3 268.67 863.679 274.563 867.521 282.158C871.364 289.622 873.285 298.331 873.285 308.283V316.729H803.935C804.191 323.408 806.624 328.843 811.235 333.033C815.845 337.224 821.48 339.319 828.14 339.319C834.928 339.319 839.922 337.813 843.124 334.801C846.326 331.789 848.759 328.45 850.424 324.783L870.211 335.39C868.418 338.795 865.792 342.527 862.335 346.587C859.005 350.515 854.522 353.92 848.887 356.801C843.252 359.551 836.08 360.926 827.371 360.926ZM804.127 298.265H848.695C848.183 292.634 845.942 288.116 841.971 284.712C838.129 281.307 833.071 279.604 826.795 279.604C820.264 279.604 815.077 281.307 811.235 284.712C807.392 288.116 805.023 292.634 804.127 298.265Z" fill="black"/>
<path d="M887.145 358.176V260.747H910.966V271.747H914.424C915.832 267.819 918.138 264.938 921.339 263.104C924.669 261.271 928.511 260.354 932.866 260.354H944.392V282.354H932.481C926.334 282.354 921.275 284.057 917.305 287.462C913.335 290.735 911.35 295.842 911.35 302.783V358.176H887.145Z" fill="black"/>
<path d="M955.627 358.176V260.747H979.448V273.515H982.906C984.443 270.11 987.324 266.902 991.551 263.89C995.777 260.747 1002.18 259.176 1010.76 259.176C1018.19 259.176 1024.66 260.944 1030.16 264.479C1035.8 267.884 1040.15 272.664 1043.23 278.819C1046.3 284.842 1047.84 291.914 1047.84 300.033V358.176H1023.63V301.997C1023.63 294.664 1021.84 289.164 1018.25 285.497C1014.8 281.831 1009.8 279.997 1003.27 279.997C995.841 279.997 990.078 282.551 985.98 287.658C981.882 292.634 979.832 299.64 979.832 308.676V358.176H955.627Z" fill="black"/>
<path d="M1109.74 360.926C1100.26 360.926 1091.87 358.896 1084.57 354.837C1077.4 350.646 1071.76 344.819 1067.66 337.355C1063.69 329.759 1061.71 320.854 1061.71 310.64V308.283C1061.71 298.069 1063.69 289.229 1067.66 281.765C1071.64 274.17 1077.21 268.342 1084.38 264.283C1091.55 260.092 1099.87 257.997 1109.35 257.997C1118.7 257.997 1126.83 260.158 1133.75 264.479C1140.66 268.67 1146.04 274.563 1149.89 282.158C1153.73 289.622 1155.65 298.331 1155.65 308.283V316.729H1086.3C1086.56 323.408 1088.99 328.843 1093.6 333.033C1098.21 337.224 1103.84 339.319 1110.5 339.319C1117.29 339.319 1122.29 337.813 1125.49 334.801C1128.69 331.789 1131.12 328.45 1132.79 324.783L1152.58 335.39C1150.78 338.795 1148.16 342.527 1144.7 346.587C1141.37 350.515 1136.89 353.92 1131.25 356.801C1125.62 359.551 1118.44 360.926 1109.74 360.926ZM1086.49 298.265H1131.06C1130.55 292.634 1128.31 288.116 1124.34 284.712C1120.49 281.307 1115.44 279.604 1109.16 279.604C1102.63 279.604 1097.44 281.307 1093.6 284.712C1089.76 288.116 1087.39 292.634 1086.49 298.265Z" fill="black"/>
<path d="M1169.51 358.176V229.17H1193.71V358.176H1169.51Z" fill="black"/>
</svg>
